<?xml version="1.0" encoding="UTF-8"?>
<svg xmlns="http://www.w3.org/2000/svg" viewBox="0 0 900 500" width="900" height="500"
     font-family="system-ui, -apple-system, sans-serif">
<rect width="900" height="500" fill="#ffffff"/>

<text x="450.0" y="30" font-size="18" fill="#1a1a2e" text-anchor="middle" font-weight="bold">数据集结构对比 (真实数据)</text>
<rect x="80.0" y="60.0" width="70.0" height="340.0" rx="3" fill="#3b82f6"/>
<text x="115.0" y="55.0" font-size="9" fill="#3b82f6" text-anchor="middle">900</text>
<rect x="153.0" y="332.0" width="42.0" height="68.0" rx="2" fill="#3b82f6" fill-opacity="0.5"/>
<text x="115.0" y="415" font-size="9" fill="#1a1a2e" text-anchor="middle">DeepSearchQA</text>
<rect x="290.0" y="88.71111111111111" width="70.0" height="311.2888888888889" rx="3" fill="#8b5cf6"/>
<text x="325.0" y="83.71111111111111" font-size="9" fill="#8b5cf6" text-anchor="middle">824</text>
<rect x="363.0" y="128.0" width="42.0" height="272.0" rx="2" fill="#8b5cf6" fill-opacity="0.5"/>
<text x="325.0" y="415" font-size="9" fill="#1a1a2e" text-anchor="middle">FRAMES</text>
<rect x="500.0" y="362.22222222222223" width="70.0" height="37.77777777777778" rx="3" fill="#ef4444"/>
<text x="535.0" y="357.22222222222223" font-size="9" fill="#ef4444" text-anchor="middle">100</text>
<rect x="573.0" y="332.0" width="42.0" height="68.0" rx="2" fill="#ef4444" fill-opacity="0.5"/>
<text x="535.0" y="415" font-size="9" fill="#1a1a2e" text-anchor="middle">DRACO</text>
<rect x="710.0" y="324.44444444444446" width="70.0" height="75.55555555555556" rx="3" fill="#10b981"/>
<text x="745.0" y="319.44444444444446" font-size="9" fill="#10b981" text-anchor="middle">200</text>
<rect x="783.0" y="281.0" width="42.0" height="118.99999999999999" rx="2" fill="#10b981" fill-opacity="0.5"/>
<text x="745.0" y="415" font-size="9" fill="#1a1a2e" text-anchor="middle">PhySciBench</text>
<rect x="920.0" y="286.6666666666667" width="70.0" height="113.33333333333333" rx="3" fill="#f59e0b"/>
<text x="955.0" y="281.6666666666667" font-size="9" fill="#f59e0b" text-anchor="middle">300</text>
<rect x="993.0" y="332.0" width="42.0" height="68.0" rx="2" fill="#f59e0b" fill-opacity="0.5"/>
<text x="955.0" y="415" font-size="9" fill="#1a1a2e" text-anchor="middle">K-BrowseComp</text>
<text x="80" y="450" font-size="10" fill="#9ca3af" text-anchor="start">柱高 = 样本量, 半透明 = 字段数/20</text>
<text x="80" y="470" font-size="10" fill="#9ca3af" text-anchor="start">共 5 个数据集, 2324 条样本</text>
</svg>